<mxfile host="app.diagrams.net" agent="Mozilla/5.0 (Windows NT 10.0; Win64; x64) AppleWebKit/537.36 (KHTML, like Gecko) Chrome/129.0.0.0 Safari/537.36" version="24.7.16">
  <diagram name="Page-1" id="mNfgXafltInSjLivuXOZ">
    <mxGraphModel dx="1468" dy="911" grid="1" gridSize="12" guides="1" tooltips="1" connect="1" arrows="1" fold="1" page="1" pageScale="1" pageWidth="827" pageHeight="1169" math="0" shadow="0">
      <root>
        <mxCell id="0" />
        <mxCell id="1" parent="0" />
        <mxCell id="NGPrD5tqcstNBQuEpWl6-14" value="" style="rounded=1;whiteSpace=wrap;html=1;" parent="1" vertex="1">
          <mxGeometry x="382.5" y="72" width="1045.5" height="476" as="geometry" />
        </mxCell>
        <mxCell id="kWubPV6db5KJRngbSQ9j-5" value="" style="edgeStyle=orthogonalEdgeStyle;rounded=0;orthogonalLoop=1;jettySize=auto;html=1;" parent="1" source="kWubPV6db5KJRngbSQ9j-1" target="kWubPV6db5KJRngbSQ9j-4" edge="1">
          <mxGeometry relative="1" as="geometry" />
        </mxCell>
        <mxCell id="kWubPV6db5KJRngbSQ9j-1" value="" style="rounded=0;whiteSpace=wrap;html=1;" parent="1" vertex="1">
          <mxGeometry x="60" y="156" width="300" height="248" as="geometry" />
        </mxCell>
        <mxCell id="kWubPV6db5KJRngbSQ9j-2" value="&lt;font style=&quot;font-size: 14px;&quot;&gt;Define Parameter Grid&lt;/font&gt;" style="rounded=0;whiteSpace=wrap;html=1;" parent="1" vertex="1">
          <mxGeometry x="72" y="180" width="276" height="36" as="geometry" />
        </mxCell>
        <mxCell id="kWubPV6db5KJRngbSQ9j-3" value="&lt;div style=&quot;line-height: 19px; white-space: pre; font-size: 13px;&quot;&gt;&lt;p style=&quot;background-color: rgb(31, 31, 31); color: rgb(204, 204, 204);&quot;&gt;&lt;/p&gt;&lt;p style=&quot;&quot;&gt;&lt;/p&gt;&lt;div style=&quot;&quot;&gt;&lt;div style=&quot;line-height: 19px; font-size: 12px;&quot;&gt;&lt;p style=&quot;&quot;&gt;&lt;/p&gt;&lt;div style=&quot;text-align: justify;&quot;&gt;&lt;span style=&quot;background-color: rgb(255, 255, 255);&quot;&gt;   &#39;learning_rate&#39;: Real(0.001, 0.5, prior=&#39;uniform&#39;),&lt;/span&gt;&lt;/div&gt;&lt;span style=&quot;background-color: rgb(255, 255, 255);&quot;&gt;&lt;div style=&quot;text-align: justify;&quot;&gt;&lt;span style=&quot;font-family: ioStfBAkOIASzjVcxTaC;&quot;&gt;&amp;nbsp; &amp;nbsp; &#39;max_iter&#39;: Integer(100, 500),&lt;/span&gt;&lt;/div&gt;&lt;font style=&quot;font-size: 12px;&quot; face=&quot;ioStfBAkOIASzjVcxTaC&quot;&gt;&lt;div style=&quot;text-align: justify;&quot;&gt;&amp;nbsp; &amp;nbsp; &#39;max_leaf_nodes&#39;: Integer(20, 100),&lt;/div&gt;&lt;/font&gt;&lt;font style=&quot;font-size: 12px;&quot; face=&quot;ioStfBAkOIASzjVcxTaC&quot;&gt;&lt;div style=&quot;text-align: justify;&quot;&gt;&amp;nbsp; &amp;nbsp; &#39;max_depth&#39;: Integer(5, 25),&lt;/div&gt;&lt;/font&gt;&lt;font style=&quot;font-size: 12px;&quot; face=&quot;ioStfBAkOIASzjVcxTaC&quot;&gt;&lt;div style=&quot;text-align: justify;&quot;&gt;&amp;nbsp; &amp;nbsp; &#39;min_samples_leaf&#39;: Integer(10, 50),&lt;/div&gt;&lt;/font&gt;&lt;font style=&quot;font-size: 12px;&quot; face=&quot;ioStfBAkOIASzjVcxTaC&quot;&gt;&lt;div style=&quot;text-align: justify;&quot;&gt;&amp;nbsp; &amp;nbsp; &#39;l2_regularization&#39;: Real(0, 2, prior=&#39;uniform&#39;)&lt;/div&gt;&lt;/font&gt;&lt;/span&gt;&lt;p&gt;&lt;/p&gt;&lt;/div&gt;&lt;/div&gt;&lt;p&gt;&lt;/p&gt;&lt;p style=&quot;background-color: rgb(31, 31, 31); color: rgb(204, 204, 204);&quot;&gt;&lt;/p&gt;&lt;/div&gt;" style="rounded=1;whiteSpace=wrap;html=1;align=left;fillColor=none;" parent="1" vertex="1">
          <mxGeometry x="72" y="228" width="276" height="160" as="geometry" />
        </mxCell>
        <mxCell id="kWubPV6db5KJRngbSQ9j-9" value="" style="edgeStyle=orthogonalEdgeStyle;rounded=0;orthogonalLoop=1;jettySize=auto;html=1;entryX=0;entryY=0.463;entryDx=0;entryDy=0;entryPerimeter=0;" parent="1" source="kWubPV6db5KJRngbSQ9j-4" target="kWubPV6db5KJRngbSQ9j-8" edge="1">
          <mxGeometry relative="1" as="geometry" />
        </mxCell>
        <mxCell id="kWubPV6db5KJRngbSQ9j-4" value="" style="rounded=0;whiteSpace=wrap;html=1;" parent="1" vertex="1">
          <mxGeometry x="410" y="160" width="262" height="240" as="geometry" />
        </mxCell>
        <mxCell id="kWubPV6db5KJRngbSQ9j-6" value="&lt;font style=&quot;font-size: 14px;&quot;&gt;Trials Object&lt;/font&gt;" style="rounded=0;whiteSpace=wrap;html=1;" parent="1" vertex="1">
          <mxGeometry x="431.25" y="180" width="228.75" height="36" as="geometry" />
        </mxCell>
        <mxCell id="kWubPV6db5KJRngbSQ9j-7" value="&lt;div style=&quot;line-height: 19px; white-space: pre;&quot;&gt;&lt;p style=&quot;background-color: rgb(31, 31, 31); color: rgb(204, 204, 204);&quot;&gt;&lt;/p&gt;&lt;p style=&quot;&quot;&gt;&lt;/p&gt;&lt;div style=&quot;text-align: center;&quot;&gt;           Start with an initial set of random &lt;/div&gt;&lt;div style=&quot;text-align: center;&quot;&gt;parameter samples.&lt;/div&gt;&lt;p&gt;&lt;/p&gt;&lt;p style=&quot;background-color: rgb(31, 31, 31); color: rgb(204, 204, 204);&quot;&gt;&lt;/p&gt;&lt;/div&gt;" style="rounded=1;whiteSpace=wrap;html=1;align=left;fillColor=none;" parent="1" vertex="1">
          <mxGeometry x="422.88" y="240" width="236.25" height="60" as="geometry" />
        </mxCell>
        <mxCell id="kWubPV6db5KJRngbSQ9j-8" value="" style="rounded=0;whiteSpace=wrap;html=1;" parent="1" vertex="1">
          <mxGeometry x="720" y="160" width="684" height="260" as="geometry" />
        </mxCell>
        <mxCell id="kWubPV6db5KJRngbSQ9j-10" value="&lt;font style=&quot;font-size: 14px;&quot;&gt;Tree Parzen Estimator (TPE)&lt;/font&gt;" style="rounded=0;whiteSpace=wrap;html=1;" parent="1" vertex="1">
          <mxGeometry x="759" y="180" width="609" height="36" as="geometry" />
        </mxCell>
        <mxCell id="kWubPV6db5KJRngbSQ9j-11" value="&lt;div style=&quot;line-height: 19px; white-space: pre;&quot;&gt;&lt;p style=&quot;background-color: rgb(31, 31, 31); color: rgb(204, 204, 204);&quot;&gt;&lt;/p&gt;&lt;p style=&quot;&quot;&gt;&lt;/p&gt;&lt;div style=&quot;text-align: center;&quot;&gt;&lt;font color=&quot;#0a0a0a&quot;&gt;    &lt;/font&gt;&lt;/div&gt;&lt;div style=&quot;text-align: center;&quot;&gt;&lt;font color=&quot;#0a0a0a&quot;&gt;&lt;b&gt;  Train and evaluate - &lt;/b&gt;for given &lt;/font&gt;&lt;/div&gt;&lt;div style=&quot;text-align: center;&quot;&gt;&lt;font color=&quot;#0a0a0a&quot;&gt;parameter combination&lt;b&gt;   &lt;/b&gt;&lt;/font&gt;&lt;/div&gt;&lt;div style=&quot;text-align: center;&quot;&gt;&lt;font color=&quot;#0a0a0a&quot;&gt;&lt;b&gt;     Objective function&lt;/b&gt; - to minimize &lt;/font&gt;&lt;/div&gt;&lt;div style=&quot;text-align: center;&quot;&gt;&lt;font color=&quot;#0a0a0a&quot;&gt;negative mean square error.&lt;/font&gt;&lt;/div&gt;&lt;div style=&quot;text-align: center;&quot;&gt;&lt;br&gt;&lt;/div&gt;&lt;p&gt;&lt;/p&gt;&lt;p style=&quot;background-color: rgb(31, 31, 31); color: rgb(204, 204, 204);&quot;&gt;&lt;/p&gt;&lt;/div&gt;" style="rounded=1;whiteSpace=wrap;html=1;align=left;fillColor=none;" parent="1" vertex="1">
          <mxGeometry x="740.25" y="250" width="219.75" height="122" as="geometry" />
        </mxCell>
        <mxCell id="kWubPV6db5KJRngbSQ9j-14" value="&lt;div style=&quot;line-height: 19px; white-space: pre;&quot;&gt;&lt;p style=&quot;background-color: rgb(31, 31, 31); color: rgb(204, 204, 204);&quot;&gt;&lt;/p&gt;&lt;p style=&quot;&quot;&gt;&lt;/p&gt;&lt;div style=&quot;text-align: center;&quot;&gt;Decide the next set of&lt;/div&gt;&lt;div style=&quot;text-align: center;&quot;&gt; hyperparameters based on &lt;/div&gt;&lt;div style=&quot;text-align: center;&quot;&gt;prior evaluations.&lt;br&gt;&lt;/div&gt;&lt;p&gt;&lt;/p&gt;&lt;p style=&quot;background-color: rgb(31, 31, 31); color: rgb(204, 204, 204);&quot;&gt;&lt;/p&gt;&lt;/div&gt;" style="rounded=1;whiteSpace=wrap;html=1;align=left;fillColor=none;" parent="1" vertex="1">
          <mxGeometry x="984" y="247" width="166.5" height="80" as="geometry" />
        </mxCell>
        <mxCell id="NGPrD5tqcstNBQuEpWl6-5" value="new set of hyperparameters is selected&lt;div&gt;&amp;nbsp;by maximizing the ratio &lt;span class=&quot;katex&quot;&gt;&lt;span class=&quot;katex-mathml&quot;&gt;&lt;math xmlns=&quot;http://www.w3.org/1998/Math/MathML&quot;&gt;&lt;mrow&gt;&lt;mfrac&gt;&lt;mrow&gt;&lt;mi&gt;P&lt;/mi&gt;&lt;mo stretchy=&quot;false&quot;&gt;(&lt;/mo&gt;&lt;mtext&gt;good&lt;/mtext&gt;&lt;mo&gt;∣&lt;/mo&gt;&lt;mi&gt;θ&lt;/mi&gt;&lt;mo stretchy=&quot;false&quot;&gt;)&lt;/mo&gt;&lt;/mrow&gt;&lt;mrow&gt;&lt;mi&gt;P&lt;/mi&gt;&lt;mo stretchy=&quot;false&quot;&gt;(&lt;/mo&gt;&lt;mtext&gt;bad&lt;/mtext&gt;&lt;mo&gt;∣&lt;/mo&gt;&lt;mi&gt;θ&lt;/mi&gt;&lt;mo stretchy=&quot;false&quot;&gt;)&lt;/mo&gt;&lt;/mrow&gt;&lt;/mfrac&gt;&lt;/mrow&gt;\frac{P(\text{good} \mid \theta)}{P(\text{bad} \mid \theta)}&lt;/math&gt;&lt;/span&gt;&lt;span aria-hidden=&quot;true&quot; class=&quot;katex-html&quot;&gt;&lt;span class=&quot;base&quot;&gt;&lt;span class=&quot;mord&quot;&gt;&lt;span class=&quot;mfrac&quot;&gt;&lt;span class=&quot;vlist-t vlist-t2&quot;&gt;&lt;span class=&quot;vlist-r&quot;&gt;&lt;span class=&quot;vlist-s&quot;&gt;​&lt;/span&gt;&lt;/span&gt;&lt;span class=&quot;vlist-r&quot;&gt;&lt;span class=&quot;vlist&quot;&gt;&lt;/span&gt;&lt;/span&gt;&lt;/span&gt;&lt;/span&gt;&lt;span class=&quot;mclose nulldelimiter&quot;&gt;&lt;/span&gt;&lt;/span&gt;&lt;/span&gt;&lt;/span&gt;&lt;/span&gt;.&lt;/div&gt;" style="html=1;shadow=0;dashed=0;align=center;verticalAlign=middle;shape=mxgraph.arrows2.arrow;dy=0;dx=26.29;flipH=1;notch=30.14;" parent="1" vertex="1">
          <mxGeometry x="912" y="456" width="348" height="48" as="geometry" />
        </mxCell>
        <mxCell id="NGPrD5tqcstNBQuEpWl6-8" value="" style="endArrow=classic;html=1;rounded=0;entryX=0.644;entryY=1.02;entryDx=0;entryDy=0;exitX=1;exitY=0.5;exitDx=0;exitDy=0;exitPerimeter=0;entryPerimeter=0;" parent="1" source="NGPrD5tqcstNBQuEpWl6-5" target="kWubPV6db5KJRngbSQ9j-11" edge="1">
          <mxGeometry width="50" height="50" relative="1" as="geometry">
            <mxPoint x="648" y="470" as="sourcePoint" />
            <mxPoint x="698" y="420" as="targetPoint" />
            <Array as="points">
              <mxPoint x="881" y="480" />
            </Array>
          </mxGeometry>
        </mxCell>
        <mxCell id="NGPrD5tqcstNBQuEpWl6-10" value="" style="endArrow=none;html=1;rounded=0;entryX=0.5;entryY=1;entryDx=0;entryDy=0;exitX=0;exitY=0.5;exitDx=30.14;exitDy=0;exitPerimeter=0;" parent="1" source="NGPrD5tqcstNBQuEpWl6-5" target="Dh_wfoStJXZmAFE4FIHj-4" edge="1">
          <mxGeometry width="50" height="50" relative="1" as="geometry">
            <mxPoint x="648" y="470" as="sourcePoint" />
            <mxPoint x="1194" y="400" as="targetPoint" />
            <Array as="points">
              <mxPoint x="1284" y="480" />
            </Array>
          </mxGeometry>
        </mxCell>
        <mxCell id="NGPrD5tqcstNBQuEpWl6-11" value="Update the trials with new information" style="html=1;shadow=0;dashed=0;align=center;verticalAlign=middle;shape=mxgraph.arrows2.arrow;dy=0;dx=26.29;flipH=1;notch=30.14;" parent="1" vertex="1">
          <mxGeometry x="571" y="460" width="276" height="48" as="geometry" />
        </mxCell>
        <mxCell id="NGPrD5tqcstNBQuEpWl6-12" value="" style="endArrow=classic;html=1;rounded=0;exitX=1;exitY=0.5;exitDx=0;exitDy=0;exitPerimeter=0;entryX=0.5;entryY=1;entryDx=0;entryDy=0;" parent="1" source="NGPrD5tqcstNBQuEpWl6-11" target="kWubPV6db5KJRngbSQ9j-4" edge="1">
          <mxGeometry width="50" height="50" relative="1" as="geometry">
            <mxPoint x="307" y="474" as="sourcePoint" />
            <mxPoint x="541" y="408" as="targetPoint" />
            <Array as="points">
              <mxPoint x="540" y="484" />
            </Array>
          </mxGeometry>
        </mxCell>
        <mxCell id="NGPrD5tqcstNBQuEpWl6-13" value="" style="endArrow=none;html=1;rounded=0;entryX=0.514;entryY=1.005;entryDx=0;entryDy=0;exitX=0;exitY=0.5;exitDx=30.14;exitDy=0;exitPerimeter=0;entryPerimeter=0;" parent="1" source="NGPrD5tqcstNBQuEpWl6-11" target="kWubPV6db5KJRngbSQ9j-11" edge="1">
          <mxGeometry width="50" height="50" relative="1" as="geometry">
            <mxPoint x="307" y="474" as="sourcePoint" />
            <mxPoint x="853" y="404" as="targetPoint" />
            <Array as="points">
              <mxPoint x="853" y="484" />
            </Array>
          </mxGeometry>
        </mxCell>
        <mxCell id="NGPrD5tqcstNBQuEpWl6-15" value="&lt;font style=&quot;font-size: 16px;&quot;&gt;Iterative process (max_evals = 50)&lt;/font&gt;" style="text;html=1;align=center;verticalAlign=middle;whiteSpace=wrap;rounded=0;" parent="1" vertex="1">
          <mxGeometry x="743.25" y="96" width="324" height="30" as="geometry" />
        </mxCell>
        <mxCell id="NGPrD5tqcstNBQuEpWl6-16" value="" style="endArrow=classic;html=1;rounded=0;" parent="1" edge="1">
          <mxGeometry width="50" height="50" relative="1" as="geometry">
            <mxPoint x="1428" y="262" as="sourcePoint" />
            <mxPoint x="1513.5" y="262" as="targetPoint" />
          </mxGeometry>
        </mxCell>
        <mxCell id="NGPrD5tqcstNBQuEpWl6-17" value="" style="rounded=0;whiteSpace=wrap;html=1;" parent="1" vertex="1">
          <mxGeometry x="1513.5" y="192" width="228" height="168" as="geometry" />
        </mxCell>
        <mxCell id="NGPrD5tqcstNBQuEpWl6-18" value="&lt;font style=&quot;font-size: 14px;&quot;&gt;Prediction&lt;/font&gt;" style="rounded=0;whiteSpace=wrap;html=1;" parent="1" vertex="1">
          <mxGeometry x="1537.5" y="212" width="168" height="28" as="geometry" />
        </mxCell>
        <mxCell id="NGPrD5tqcstNBQuEpWl6-19" value="&lt;div style=&quot;line-height: 19px; white-space: pre;&quot;&gt;&lt;p style=&quot;background-color: rgb(31, 31, 31); color: rgb(204, 204, 204);&quot;&gt;&lt;/p&gt;&lt;p style=&quot;&quot;&gt;&lt;/p&gt;&lt;div style=&quot;text-align: center;&quot;&gt;  Train the model with the best &lt;/div&gt;&lt;div style=&quot;text-align: center;&quot;&gt;  parameter combination identified&lt;/div&gt;&lt;div style=&quot;text-align: center;&quot;&gt;by the TPE&lt;/div&gt;&lt;p&gt;&lt;/p&gt;&lt;p style=&quot;background-color: rgb(31, 31, 31); color: rgb(204, 204, 204);&quot;&gt;&lt;/p&gt;&lt;/div&gt;" style="rounded=1;whiteSpace=wrap;html=1;align=left;fillColor=none;" parent="1" vertex="1">
          <mxGeometry x="1537.5" y="264" width="188.25" height="68" as="geometry" />
        </mxCell>
        <mxCell id="Dh_wfoStJXZmAFE4FIHj-4" value="&lt;div style=&quot;line-height: 19px; white-space: pre;&quot;&gt;&lt;p style=&quot;background-color: rgb(31, 31, 31); color: rgb(204, 204, 204);&quot;&gt;&lt;/p&gt;&lt;p style=&quot;&quot;&gt;&lt;/p&gt;&lt;div style=&quot;text-align: center;&quot;&gt;&lt;br&gt;&lt;/div&gt;&lt;p&gt;&lt;/p&gt;&lt;p style=&quot;background-color: rgb(31, 31, 31); color: rgb(204, 204, 204);&quot;&gt;&lt;/p&gt;&lt;/div&gt;" style="rounded=1;whiteSpace=wrap;html=1;align=left;fillColor=none;" parent="1" vertex="1">
          <mxGeometry x="1176" y="240" width="216" height="144" as="geometry" />
        </mxCell>
        <mxCell id="Dh_wfoStJXZmAFE4FIHj-6" value="" style="endArrow=classic;startArrow=classic;html=1;rounded=0;entryX=0;entryY=0.5;entryDx=0;entryDy=0;exitX=0.997;exitY=0.302;exitDx=0;exitDy=0;exitPerimeter=0;" parent="1" source="kWubPV6db5KJRngbSQ9j-11" target="kWubPV6db5KJRngbSQ9j-14" edge="1">
          <mxGeometry width="50" height="50" relative="1" as="geometry">
            <mxPoint x="924" y="374" as="sourcePoint" />
            <mxPoint x="974" y="324" as="targetPoint" />
          </mxGeometry>
        </mxCell>
        <mxCell id="Dh_wfoStJXZmAFE4FIHj-7" value="" style="endArrow=classic;startArrow=classic;html=1;rounded=0;" parent="1" edge="1">
          <mxGeometry width="50" height="50" relative="1" as="geometry">
            <mxPoint x="1176" y="288" as="sourcePoint" />
            <mxPoint x="1152" y="288" as="targetPoint" />
          </mxGeometry>
        </mxCell>
        <mxCell id="Dh_wfoStJXZmAFE4FIHj-8" value="&lt;span class=&quot;base&quot;&gt;&lt;span class=&quot;mord mathnormal&quot;&gt;P&lt;/span&gt;&lt;span class=&quot;mopen&quot;&gt;(&lt;/span&gt;&lt;span class=&quot;mord text&quot;&gt;&lt;span class=&quot;mord&quot;&gt;good&lt;/span&gt;&lt;/span&gt;&lt;span class=&quot;mspace&quot;&gt;&lt;/span&gt;&lt;span class=&quot;mrel&quot;&gt;∣&lt;/span&gt;&lt;span class=&quot;mspace&quot;&gt;&lt;/span&gt;&lt;/span&gt;&lt;span class=&quot;base&quot;&gt;&lt;span class=&quot;strut&quot;&gt;&lt;/span&gt;&lt;span class=&quot;mord mathnormal&quot;&gt;θ&lt;/span&gt;&lt;span class=&quot;mclose&quot;&gt;) model&lt;/span&gt;&lt;/span&gt;" style="rounded=0;whiteSpace=wrap;html=1;" parent="1" vertex="1">
          <mxGeometry x="1188" y="257" width="192" height="43" as="geometry" />
        </mxCell>
        <mxCell id="Dh_wfoStJXZmAFE4FIHj-9" value="&lt;span class=&quot;base&quot;&gt;&lt;span class=&quot;mord mathnormal&quot;&gt;P&lt;/span&gt;&lt;span class=&quot;mopen&quot;&gt;(&lt;/span&gt;&lt;span class=&quot;mord text&quot;&gt;&lt;span class=&quot;mord&quot;&gt;bad&lt;/span&gt;&lt;/span&gt;&lt;span class=&quot;mspace&quot;&gt;&lt;/span&gt;&lt;span class=&quot;mrel&quot;&gt;∣&lt;/span&gt;&lt;span class=&quot;mspace&quot;&gt;&lt;/span&gt;&lt;/span&gt;&lt;span class=&quot;base&quot;&gt;&lt;span class=&quot;strut&quot;&gt;&lt;/span&gt;&lt;span class=&quot;mord mathnormal&quot;&gt;θ&lt;/span&gt;&lt;span class=&quot;mclose&quot;&gt;) model&lt;/span&gt;&lt;/span&gt;" style="rounded=0;whiteSpace=wrap;html=1;" parent="1" vertex="1">
          <mxGeometry x="1188" y="317" width="192" height="43" as="geometry" />
        </mxCell>
        <mxCell id="fW08YOXwZDWAlxBtCpcs-1" value="&lt;div style=&quot;line-height: 19px; white-space: pre;&quot;&gt;&lt;p style=&quot;background-color: rgb(31, 31, 31); color: rgb(204, 204, 204);&quot;&gt;&lt;/p&gt;&lt;p style=&quot;&quot;&gt;&lt;/p&gt;&lt;div style=&quot;text-align: center;&quot;&gt;  Stores and learns on data from each trial&lt;/div&gt;&lt;p&gt;&lt;/p&gt;&lt;p style=&quot;background-color: rgb(31, 31, 31); color: rgb(204, 204, 204);&quot;&gt;&lt;/p&gt;&lt;/div&gt;" style="rounded=1;whiteSpace=wrap;html=1;align=left;fillColor=none;" vertex="1" parent="1">
          <mxGeometry x="423.75" y="312" width="236.25" height="60" as="geometry" />
        </mxCell>
      </root>
    </mxGraphModel>
  </diagram>
</mxfile>
